<?xml version="1.0" encoding="iso-8859-1"?>
<!-- Generator: Adobe Illustrator 18.1.1, SVG Export Plug-In . SVG Version: 6.00 Build 0)  -->
<svg xmlns="http://www.w3.org/2000/svg" xmlns:xlink="http://www.w3.org/1999/xlink" version="1.1" id="Capa_1" x="0px" y="0px" viewBox="0 0 285.001 285.001" style="enable-background:new 0 0 285.001 285.001;" xml:space="preserve" width="512px" height="512px">
<g>
	<g>
		<path d="M160.313,132.928h64.769c7.162,0,12.963-5.802,12.963-12.955V63.647c0-7.156-5.801-12.954-12.963-12.954h-64.769    c-7.149,0-12.951,5.798-12.951,12.954v56.326C147.361,127.126,153.163,132.928,160.313,132.928z" fill="#d23333"/>
		<path d="M59.919,132.928h64.769c7.149,0,12.951-5.802,12.951-12.955V63.647c0-7.156-5.802-12.954-12.951-12.954H59.919    c-7.162,0-12.963,5.798-12.963,12.954v56.326C46.956,127.126,52.757,132.928,59.919,132.928z" fill="#d23333"/>
		<path d="M265.567,98.289c-10.737,0-19.427,8.699-19.427,19.43v30.408c-4.156-2.836-9.166-4.5-14.578-4.5H53.438    c-5.412,0-10.422,1.664-14.578,4.5v-30.408c0-10.73-8.689-19.43-19.427-19.43C8.703,98.289,0,106.988,0,117.719v84.205    c0,10.73,8.702,19.43,19.433,19.43h6.476c0,7.156,5.802,12.954,12.951,12.954c7.162,0,12.958-5.798,12.958-12.954h181.365    c0,7.156,5.796,12.954,12.958,12.954c7.149,0,12.951-5.798,12.951-12.954h6.476c10.73,0,19.433-8.699,19.433-19.43v-84.205    C285,106.988,276.298,98.289,265.567,98.289z" fill="#d23333"/>
	</g>
</g>
<g>
</g>
<g>
</g>
<g>
</g>
<g>
</g>
<g>
</g>
<g>
</g>
<g>
</g>
<g>
</g>
<g>
</g>
<g>
</g>
<g>
</g>
<g>
</g>
<g>
</g>
<g>
</g>
<g>
</g>
</svg>
