<?xml version="1.0" encoding="iso-8859-1"?>
<!-- Generator: Adobe Illustrator 19.0.0, SVG Export Plug-In . SVG Version: 6.00 Build 0)  -->
<svg version="1.1" id="Layer_1" xmlns="http://www.w3.org/2000/svg" xmlns:xlink="http://www.w3.org/1999/xlink" x="0px" y="0px"
	 viewBox="0 0 512 512" style="enable-background:new 0 0 512 512;" xml:space="preserve">
<circle style="fill:#FC6F58;" cx="256" cy="256" r="256"/>
<path style="fill:#F1543F;" d="M284.869,510.371c114.164-12.814,205.605-100.698,223.811-213.145L391.939,180.484l-78,50.907
	L118.546,344.048L284.869,510.371z"/>
<path style="fill:#FFD15D;" d="M382.993,348.229H129.005c-8.411,0-15.229-6.818-15.229-15.227v-140.21
	c0-8.411,6.818-15.229,15.229-15.229h253.988c8.411,0,15.227,6.818,15.227,15.229v140.21
	C398.222,341.411,391.404,348.229,382.993,348.229z"/>
<path style="fill:#F9B54C;" d="M382.993,177.562H256v170.667h126.993c8.411,0,15.227-6.818,15.227-15.227v-140.21
	C398.222,184.38,391.404,177.562,382.993,177.562z"/>
<rect x="125.845" y="192.215" style="fill:#05BEA6;" width="260.31" height="141.36"/>
<rect x="256" y="192.215" style="fill:#2C9984;" width="130.155" height="141.36"/>
<ellipse style="fill:#FFD15D;" cx="256" cy="262.896" rx="33.616" ry="56.889"/>
<path style="fill:#F9B54C;" d="M289.616,262.896c0-31.418-15.05-56.889-33.616-56.889v113.778
	C274.566,319.785,289.616,294.314,289.616,262.896z"/>
<path style="fill:#05BEA6;" d="M270.107,254.823c1.774,0,3.212-1.438,3.212-3.212v-2.195c0-6.651-6.287-12.071-14.107-12.283v-0.838
	c0-1.774-1.438-3.212-3.212-3.212c-1.774,0-3.212,1.438-3.212,3.212v0.838c-7.82,0.21-14.107,5.632-14.107,12.283v4.389
	c0,6.649,6.287,12.071,14.107,12.281v16.15c-4.21-0.183-7.683-2.788-7.683-5.861v-2.195c0-1.774-1.438-3.212-3.212-3.212
	s-3.212,1.438-3.212,3.212v2.195c0,6.649,6.287,12.071,14.107,12.281v0.84c0,1.774,1.438,3.212,3.212,3.212
	c1.774,0,3.212-1.438,3.212-3.212v-0.84c7.82-0.21,14.107-5.632,14.107-12.281v-4.389c0-6.651-6.287-12.071-14.107-12.283v-16.15
	c4.21,0.183,7.683,2.789,7.683,5.863v2.195C266.895,253.383,268.333,254.823,270.107,254.823z M245.105,253.805v-4.389
	c0-3.074,3.474-5.68,7.683-5.863v16.112C248.579,259.484,245.105,256.877,245.105,253.805z M266.895,271.986v4.389
	c0,3.074-3.474,5.679-7.683,5.861v-16.112C263.421,266.307,266.895,268.914,266.895,271.986z"/>
<path style="fill:#2C9984;" d="M270.107,254.823c1.774,0,3.212-1.438,3.212-3.212v-2.195c0-6.651-6.287-12.071-14.107-12.283v-0.838
	c0-1.774-1.438-3.212-3.212-3.212v59.623c1.774,0,3.212-1.438,3.212-3.212v-0.84c7.82-0.212,14.107-5.632,14.107-12.281v-4.389
	c0-6.651-6.287-12.071-14.107-12.283v-16.15c4.21,0.183,7.683,2.789,7.683,5.863v2.195
	C266.895,253.383,268.333,254.823,270.107,254.823z M266.895,271.986v4.389c0,3.074-3.474,5.679-7.683,5.861v-16.112
	C263.421,266.307,266.895,268.914,266.895,271.986z"/>
<g>
</g>
<g>
</g>
<g>
</g>
<g>
</g>
<g>
</g>
<g>
</g>
<g>
</g>
<g>
</g>
<g>
</g>
<g>
</g>
<g>
</g>
<g>
</g>
<g>
</g>
<g>
</g>
<g>
</g>
</svg>
